<?xml version="1.0" encoding="UTF-8"?>
<svg xmlns="http://www.w3.org/2000/svg" version="1.1" xmlns:xlink="http://www.w3.org/1999/xlink" viewBox="0 0 576 576">
  <!-- Generator: Adobe Illustrator 29.5.0, SVG Export Plug-In . SVG Version: 2.1.0 Build 137)  -->
  <defs>
    <style>
      .st0 {
        fill: none;
        stroke: #231f20;
      }

      .st0, .st1, .st2, .st3, .st4, .st5 {
        isolation: isolate;
      }

      .st0, .st1, .st4, .st5 {
        font-family: CenturyGothic-Bold, 'Century Gothic';
        font-size: 125.76px;
        font-weight: 700;
      }

      .st0, .st4 {
        stroke-width: 2px;
      }

      .st0, .st4, .st5 {
        stroke-miterlimit: 10;
      }

      .st6 {
        fill: url(#linear-gradient1);
      }

      .st1 {
        fill: #231f20;
      }

      .st3 {
        opacity: .85;
      }

      .st4, .st5 {
        fill: #fff;
        stroke: #fff;
      }

      .st7 {
        display: none;
      }

      .st8 {
        fill: url(#linear-gradient);
      }
    </style>
    <linearGradient id="linear-gradient" x1="128.06" y1="297.01" x2="255.4" y2="297.01" gradientTransform="translate(0 578) scale(1 -1)" gradientUnits="userSpaceOnUse">
      <stop offset=".21" stop-color="#320037"/>
      <stop offset=".5" stop-color="#2f4a9f"/>
      <stop offset=".79" stop-color="#f069a7"/>
    </linearGradient>
    <linearGradient id="linear-gradient1" x1="100.83" y1="303.55" x2="228.17" y2="303.55" xlink:href="#linear-gradient"/>
  </defs>
  <g id="Layer_1" class="st7">
    <path class="st8" d="M219.26,244.85c-9.82,0-18.73,3.94-25.26,10.31,4.13,4.76,7.15,10.51,8.63,16.85,3.2-5.9,9.45-9.92,16.63-9.92,10.42,0,18.9,8.48,18.9,18.9s-8.48,18.9-18.9,18.9-18.9-8.48-18.9-18.9c0-19.93-16.22-36.15-36.15-36.15s-36.15,16.22-36.15,36.15,16.22,36.15,36.15,36.15c9.82,0,18.73-3.94,25.25-10.31-4.13-4.76-7.15-10.52-8.63-16.85-3.2,5.9-9.45,9.92-16.63,9.92-10.42,0-18.9-8.48-18.9-18.9s8.48-18.9,18.9-18.9,18.9,8.48,18.9,18.9c0,19.93,16.22,36.15,36.15,36.15s36.15-16.22,36.15-36.15-16.22-36.15-36.15-36.15h.01Z"/>
    <g class="st2">
      <text class="st1" transform="translate(89.86 316.66)"><tspan x="0" y="0" xml:space="preserve">l    ped</tspan></text>
      <text class="st0" transform="translate(89.86 316.66)"><tspan x="0" y="0" xml:space="preserve">l    ped</tspan></text>
    </g>
  </g>
  <g id="Layer_2">
    <path class="st6" d="M192.03,238.3c-9.82,0-18.73,3.94-25.26,10.31,4.13,4.76,7.15,10.51,8.63,16.85,3.2-5.9,9.45-9.92,16.63-9.92,10.42,0,18.9,8.48,18.9,18.9s-8.48,18.9-18.9,18.9-18.9-8.48-18.9-18.9c0-19.93-16.22-36.15-36.15-36.15s-36.15,16.22-36.15,36.15,16.22,36.15,36.15,36.15c9.82,0,18.73-3.94,25.25-10.31-4.13-4.76-7.15-10.52-8.63-16.85-3.2,5.9-9.45,9.92-16.63,9.92-10.42,0-18.9-8.48-18.9-18.9s8.48-18.9,18.9-18.9,18.9,8.48,18.9,18.9c0,19.93,16.22,36.15,36.15,36.15s36.15-16.22,36.15-36.15-16.22-36.15-36.15-36.15h.01Z"/>
    <g class="st3">
      <text class="st5" transform="translate(62.63 310.11)"><tspan x="0" y="0" xml:space="preserve">l    ped</tspan></text>
      <text class="st4" transform="translate(62.63 310.11)"><tspan x="0" y="0" xml:space="preserve">l    ped</tspan></text>
    </g>
  </g>
</svg>