<?xml version="1.0" encoding="UTF-8"?>
<svg id="Layer_1" xmlns="http://www.w3.org/2000/svg" version="1.1" xmlns:xlink="http://www.w3.org/1999/xlink" viewBox="0 0 576 576">
  <!-- Generator: Adobe Illustrator 29.5.0, SVG Export Plug-In . SVG Version: 2.1.0 Build 137)  -->
  <defs>
    <style>
      .st0 {
        fill: #231f20;
        font-family: CenturyGothic-Bold, 'Century Gothic';
        font-size: 125.76px;
        font-weight: 700;
        letter-spacing: -.02em;
        stroke: #231f20;
        stroke-miterlimit: 10;
        stroke-width: 2px;
      }

      .st1 {
        fill: url(#linear-gradient);
      }
    </style>
    <linearGradient id="linear-gradient" x1="126.36" y1="287.89" x2="253.72" y2="287.89" gradientUnits="userSpaceOnUse">
      <stop offset=".21" stop-color="#320037"/>
      <stop offset=".5" stop-color="#2f4a9f"/>
      <stop offset=".79" stop-color="#f069a7"/>
    </linearGradient>
  </defs>
  <text/>
  <path class="st1" d="M217.57,251.74c-9.82,0-18.73,3.94-25.26,10.31,4.13,4.76,7.15,10.51,8.63,16.85,3.2-5.9,9.45-9.92,16.63-9.92,10.42,0,18.9,8.48,18.9,18.9s-8.48,18.9-18.9,18.9-18.9-8.48-18.9-18.9c0-19.93-16.22-36.15-36.15-36.15s-36.15,16.22-36.15,36.15,16.22,36.15,36.15,36.15c9.82,0,18.73-3.94,25.25-10.31-4.13-4.76-7.15-10.52-8.63-16.85-3.2,5.9-9.45,9.92-16.63,9.92-10.42,0-18.9-8.48-18.9-18.9s8.48-18.9,18.9-18.9,18.9,8.48,18.9,18.9c0,19.93,16.22,36.15,36.15,36.15s36.15-16.22,36.15-36.15-16.22-36.15-36.15-36.15Z"/>
  <text class="st0" transform="translate(96.55 324.05)"><tspan x="0" y="0" xml:space="preserve">l    ped</tspan></text>
  <text/>
  <text/>
  <text/>
</svg>